<?xml version="1.0" standalone="no"?><!DOCTYPE svg PUBLIC "-//W3C//DTD SVG 1.1//EN" "http://www.w3.org/Graphics/SVG/1.1/DTD/svg11.dtd"><svg t="1657701389929" class="icon" viewBox="0 0 1024 1024" version="1.1" xmlns="http://www.w3.org/2000/svg" p-id="1671" xmlns:xlink="http://www.w3.org/1999/xlink" width="200" height="200"><defs><style type="text/css"></style></defs><path d="M775.68 355.84l-232.96-240.64c-17.92-17.92-48.64-17.92-66.56 0l-232.96 240.64c-12.8 12.8-12.8 23.04-12.8 40.96v419.84c0 58.88 46.08 104.96 102.4 104.96h355.84c56.32 0 102.4-46.08 102.4-104.96V422.4c0-28.16 2.56-48.64-15.36-66.56zM742.4 819.2c0 28.16-23.04 51.2-51.2 51.2H332.8c-28.16 0-51.2-25.6-51.2-53.76V409.6c0-17.92 2.56-28.16 10.24-35.84l199.68-204.8c10.24-10.24 23.04-10.24 33.28 0l199.68 204.8c10.24 10.24 17.92 17.92 17.92 35.84v409.6z m-232.96-499.2c-56.32 0-102.4 46.08-102.4 104.96s46.08 104.96 102.4 104.96 102.4-46.08 102.4-104.96-46.08-104.96-102.4-104.96z m0 156.16c-28.16 0-51.2-23.04-51.2-51.2s23.04-51.2 51.2-51.2 51.2 23.04 51.2 51.2-23.04 51.2-51.2 51.2z" p-id="1672"></path></svg>